<svg width="60" height="61" viewBox="0 0 60 61" fill="none" xmlns="http://www.w3.org/2000/svg">
<rect y="0.5" width="60" height="60" rx="18.0723" fill="url(#paint0_linear_10_289)"/>
<path d="M43.7465 20.0062H37.0845V16.7148C37.0845 14.9543 35.6127 13.5 33.831 13.5H27.169C25.3873 13.5 23.9155 14.9543 23.9155 16.7148V20.0062H17.2535C15.4718 20.0062 14 21.4605 14 23.2975V41.2086C14 43.0457 15.4718 44.5 17.2535 44.5H43.7465C45.5282 44.5 47 43.0457 47 41.2086V23.2975C47 21.4605 45.5282 20.0062 43.7465 20.0062ZM33.831 20.0062H27.169V16.7148H33.831V20.0062Z" fill="black"/>
<path d="M43.7465 20.0062H37.0845V16.7148C37.0845 14.9543 35.6127 13.5 33.831 13.5H27.169C25.3873 13.5 23.9155 14.9543 23.9155 16.7148V20.0062H17.2535C15.4718 20.0062 14 21.4605 14 23.2975V41.2086C14 43.0457 15.4718 44.5 17.2535 44.5H43.7465C45.5282 44.5 47 43.0457 47 41.2086V23.2975C47 21.4605 45.5282 20.0062 43.7465 20.0062ZM33.831 20.0062H27.169V16.7148H33.831V20.0062Z" fill="url(#paint1_linear_10_289)"/>
<defs>
<linearGradient id="paint0_linear_10_289" x1="30" y1="0.5" x2="30" y2="60.5" gradientUnits="userSpaceOnUse">
<stop stop-color="#F8F8F8"/>
<stop offset="1" stop-color="#F9F4FF"/>
</linearGradient>
<linearGradient id="paint1_linear_10_289" x1="30.5" y1="44.5" x2="30.5" y2="13.5" gradientUnits="userSpaceOnUse">
<stop stop-color="#6538B7"/>
<stop offset="1" stop-color="#AC79F2"/>
</linearGradient>
</defs>
</svg>
