<svg width="60" height="61" viewBox="0 0 60 61" fill="none" xmlns="http://www.w3.org/2000/svg">
<rect y="0.5" width="60" height="60" rx="18.0723" fill="url(#paint0_linear_10_286)"/>
<path d="M18.9848 44.952C18.9848 45.0293 18.9783 45.1001 18.9655 45.1645C18.9526 45.2289 18.9461 45.2869 18.9461 45.3384C18.9461 45.8021 19.1071 46.195 19.4292 46.517C19.7512 46.839 20.144 47 20.6077 47C20.7881 47 20.9555 46.9742 21.1101 46.9227C21.2646 46.8712 21.4063 46.7939 21.5351 46.6909L30.5 40.74L39.4649 46.6909C39.5937 46.7939 39.7354 46.8712 39.8899 46.9227C40.0445 46.9742 40.2119 47 40.3923 47C40.856 47 41.2488 46.839 41.5708 46.517C41.8929 46.195 42.0539 45.8021 42.0539 45.3384C42.0539 45.2611 42.0474 45.1838 42.0345 45.1066C42.0217 45.0293 42.0023 44.952 41.9766 44.8747L38.9625 34.3255L46.459 27.6019C46.6136 27.4473 46.7424 27.267 46.8454 27.0609C46.9485 26.8548 47 26.623 47 26.3653C47 25.9532 46.8519 25.5861 46.5556 25.2641C46.2594 24.942 45.9052 24.7681 45.493 24.7424H45.4543L36.0644 23.9696L32.007 14.966C31.8782 14.6827 31.6786 14.4508 31.4081 14.2705C31.1376 14.0902 30.8349 14 30.5 14C30.1651 14 29.8624 14.0902 29.5919 14.2705C29.3214 14.4508 29.1218 14.6827 28.993 14.966L24.9356 23.9696L15.5457 24.7424C15.1077 24.7681 14.7406 24.942 14.4444 25.2641C14.1481 25.5861 14 25.9532 14 26.3653C14 26.5972 14.0451 26.8162 14.1352 27.0222C14.2254 27.2283 14.3478 27.4087 14.5023 27.5632L21.4578 34.3255L18.9848 44.952ZM30.5 19.6803L33.8618 27.1382L41.397 27.7178L35.2143 33.2436L35.5234 34.2482L37.5714 41.4742L30.5 36.76V19.6803Z" fill="black"/>
<path d="M18.9848 44.952C18.9848 45.0293 18.9783 45.1001 18.9655 45.1645C18.9526 45.2289 18.9461 45.2869 18.9461 45.3384C18.9461 45.8021 19.1071 46.195 19.4292 46.517C19.7512 46.839 20.144 47 20.6077 47C20.7881 47 20.9555 46.9742 21.1101 46.9227C21.2646 46.8712 21.4063 46.7939 21.5351 46.6909L30.5 40.74L39.4649 46.6909C39.5937 46.7939 39.7354 46.8712 39.8899 46.9227C40.0445 46.9742 40.2119 47 40.3923 47C40.856 47 41.2488 46.839 41.5708 46.517C41.8929 46.195 42.0539 45.8021 42.0539 45.3384C42.0539 45.2611 42.0474 45.1838 42.0345 45.1066C42.0217 45.0293 42.0023 44.952 41.9766 44.8747L38.9625 34.3255L46.459 27.6019C46.6136 27.4473 46.7424 27.267 46.8454 27.0609C46.9485 26.8548 47 26.623 47 26.3653C47 25.9532 46.8519 25.5861 46.5556 25.2641C46.2594 24.942 45.9052 24.7681 45.493 24.7424H45.4543L36.0644 23.9696L32.007 14.966C31.8782 14.6827 31.6786 14.4508 31.4081 14.2705C31.1376 14.0902 30.8349 14 30.5 14C30.1651 14 29.8624 14.0902 29.5919 14.2705C29.3214 14.4508 29.1218 14.6827 28.993 14.966L24.9356 23.9696L15.5457 24.7424C15.1077 24.7681 14.7406 24.942 14.4444 25.2641C14.1481 25.5861 14 25.9532 14 26.3653C14 26.5972 14.0451 26.8162 14.1352 27.0222C14.2254 27.2283 14.3478 27.4087 14.5023 27.5632L21.4578 34.3255L18.9848 44.952ZM30.5 19.6803L33.8618 27.1382L41.397 27.7178L35.2143 33.2436L35.5234 34.2482L37.5714 41.4742L30.5 36.76V19.6803Z" fill="url(#paint1_linear_10_286)"/>
<defs>
<linearGradient id="paint0_linear_10_286" x1="30" y1="0.5" x2="30" y2="60.5" gradientUnits="userSpaceOnUse">
<stop stop-color="#F8F8F8"/>
<stop offset="1" stop-color="#F9F4FF"/>
</linearGradient>
<linearGradient id="paint1_linear_10_286" x1="30.5" y1="47" x2="30.5" y2="14" gradientUnits="userSpaceOnUse">
<stop stop-color="#6538B7"/>
<stop offset="1" stop-color="#AC79F2"/>
</linearGradient>
</defs>
</svg>
