<svg width="36" height="36" viewBox="0 0 36 36" fill="none" xmlns="http://www.w3.org/2000/svg">
<circle cx="18" cy="18" r="18" fill="#4B7CD9"/>
<circle cx="18" cy="18" r="18" fill="url(#paint0_linear_2003_2)"/>
<circle cx="18" cy="18" r="18" fill="white"/>
<path d="M27 22.8805C27 23.1865 26.9319 23.501 26.7872 23.807C26.6425 24.113 26.4552 24.402 26.2083 24.674C25.7912 25.133 25.3315 25.4645 24.8122 25.677C24.3015 25.8895 23.7481 26 23.1522 26C22.2839 26 21.356 25.796 20.3771 25.3795C19.3981 24.963 18.4191 24.402 17.4487 23.6965C16.4697 22.9825 15.5418 22.192 14.6565 21.3165C13.7797 20.4325 12.988 19.506 12.2814 18.537C11.5834 17.568 11.0215 16.599 10.6129 15.6385C10.2043 14.6695 10 13.743 10 12.859C10 12.281 10.1022 11.7285 10.3065 11.2185C10.5108 10.7 10.8343 10.224 11.2854 9.799C11.8302 9.2635 12.4261 9 13.0561 9C13.2944 9 13.5328 9.051 13.7456 9.153C13.967 9.255 14.1627 9.408 14.316 9.629L16.2909 12.4085C16.4442 12.621 16.5548 12.8165 16.6314 13.0035C16.7081 13.182 16.7506 13.3605 16.7506 13.522C16.7506 13.726 16.691 13.93 16.5719 14.1255C16.4612 14.321 16.2994 14.525 16.0951 14.729L15.4482 15.4005C15.3545 15.494 15.312 15.6045 15.312 15.7405C15.312 15.8085 15.3205 15.868 15.3375 15.936C15.363 16.004 15.3886 16.055 15.4056 16.106C15.5588 16.3865 15.8227 16.752 16.1973 17.194C16.5804 17.636 16.989 18.0865 17.4316 18.537C17.8913 18.9875 18.334 19.404 18.7852 19.7865C19.2278 20.1605 19.5939 20.4155 19.8833 20.5685C19.9259 20.5855 19.977 20.611 20.0366 20.6365C20.1047 20.662 20.1728 20.6705 20.2494 20.6705C20.3941 20.6705 20.5048 20.6195 20.5984 20.526L21.2454 19.8885C21.4582 19.676 21.6625 19.5145 21.8583 19.4125C22.0541 19.2935 22.2499 19.234 22.4627 19.234C22.6244 19.234 22.7947 19.268 22.982 19.3445C23.1693 19.421 23.365 19.5315 23.5779 19.676L26.3956 21.6735C26.6169 21.8265 26.7702 22.005 26.8638 22.2175C26.9489 22.43 27 22.6425 27 22.8805Z" fill="#1C1437"/>
<path d="M27 22.8805C27 23.1865 26.9319 23.501 26.7872 23.807C26.6425 24.113 26.4552 24.402 26.2083 24.674C25.7912 25.133 25.3315 25.4645 24.8122 25.677C24.3015 25.8895 23.7481 26 23.1522 26C22.2839 26 21.356 25.796 20.3771 25.3795C19.3981 24.963 18.4191 24.402 17.4487 23.6965C16.4697 22.9825 15.5418 22.192 14.6565 21.3165C13.7797 20.4325 12.988 19.506 12.2814 18.537C11.5834 17.568 11.0215 16.599 10.6129 15.6385C10.2043 14.6695 10 13.743 10 12.859C10 12.281 10.1022 11.7285 10.3065 11.2185C10.5108 10.7 10.8343 10.224 11.2854 9.799C11.8302 9.2635 12.4261 9 13.0561 9C13.2944 9 13.5328 9.051 13.7456 9.153C13.967 9.255 14.1627 9.408 14.316 9.629L16.2909 12.4085C16.4442 12.621 16.5548 12.8165 16.6314 13.0035C16.7081 13.182 16.7506 13.3605 16.7506 13.522C16.7506 13.726 16.691 13.93 16.5719 14.1255C16.4612 14.321 16.2994 14.525 16.0951 14.729L15.4482 15.4005C15.3545 15.494 15.312 15.6045 15.312 15.7405C15.312 15.8085 15.3205 15.868 15.3375 15.936C15.363 16.004 15.3886 16.055 15.4056 16.106C15.5588 16.3865 15.8227 16.752 16.1973 17.194C16.5804 17.636 16.989 18.0865 17.4316 18.537C17.8913 18.9875 18.334 19.404 18.7852 19.7865C19.2278 20.1605 19.5939 20.4155 19.8833 20.5685C19.9259 20.5855 19.977 20.611 20.0366 20.6365C20.1047 20.662 20.1728 20.6705 20.2494 20.6705C20.3941 20.6705 20.5048 20.6195 20.5984 20.526L21.2454 19.8885C21.4582 19.676 21.6625 19.5145 21.8583 19.4125C22.0541 19.2935 22.2499 19.234 22.4627 19.234C22.6244 19.234 22.7947 19.268 22.982 19.3445C23.1693 19.421 23.365 19.5315 23.5779 19.676L26.3956 21.6735C26.6169 21.8265 26.7702 22.005 26.8638 22.2175C26.9489 22.43 27 22.6425 27 22.8805Z" fill="url(#paint1_linear_2003_2)"/>
<defs>
<linearGradient id="paint0_linear_2003_2" x1="36" y1="18.4" x2="2.72247e-07" y2="18.4" gradientUnits="userSpaceOnUse">
<stop stop-color="#1953FE"/>
<stop offset="1" stop-color="#51A1FF"/>
</linearGradient>
<linearGradient id="paint1_linear_2003_2" x1="18.5" y1="26" x2="18.5" y2="9" gradientUnits="userSpaceOnUse">
<stop stop-color="#6538B7"/>
<stop offset="1" stop-color="#AC79F2"/>
</linearGradient>
</defs>
</svg>
